PathFileType	4	(X/Y/Z)	 control3min.trc
DataRate	CameraRate	NumFrames	NumMarkers	Units	OrigDataRate	OrigDataStartFrame	OrigNumFrames
200	200	9	35	m	200	376	1000
Frame#	Time	C7			LSH			RSH			MAN			RASI			LASI			HIPR			HIPL			RPSI			LPSI			COX			RTHI1			RTHI2			RTHI3			RTHI4			RSHA1			RSHA2			RSHA3			RSHA4			RHEEL			RMET5			RMET1			RTOE			LTHI1			LTHI2			LTHI3			LTHI4			LSHA1			LSHA2			LSHA3			LSHA4			LHEEL			LMET5			LMET1			LTOE			
		X1	Y1	Z1	X2	Y2	Z2	X3	Y3	Z3	X4	Y4	Z4	X5	Y5	Z5	X6	Y6	Z6	X7	Y7	Z7	X8	Y8	Z8	X9	Y9	Z9	X10	Y10	Z10	X11	Y11	Z11	X12	Y12	Z12	X13	Y13	Z13	X14	Y14	Z14	X15	Y15	Z15	X16	Y16	Z16	X17	Y17	Z17	X18	Y18	Z18	X19	Y19	Z19	X20	Y20	Z20	X21	Y21	Z21	X22	Y22	Z22	X23	Y23	Z23	X24	Y24	Z24	X25	Y25	Z25	X26	Y26	Z26	X27	Y27	Z27	X28	Y28	Z28	X29	Y29	Z29	X30	Y30	Z30	X31	Y31	Z31	X32	Y32	Z32	X33	Y33	Z33	X34	Y34	Z34	X35	Y35	Z35	
376	1.8800	-0.290272	1.360189	-0.556953	-0.215100	1.347806	-0.729698	-0.240225	1.329908	-0.382904	-0.158549	1.307209	-0.553930	-0.145802	0.921194	-0.436620	-0.138346	0.922980	-0.662072	-0.206983	0.971501	-0.411646	-0.199417	0.962805	-0.695303	-0.305212	0.947497	-0.500797	-0.304733	0.945508	-0.607003	-0.305025	0.956067	-0.550286	-0.222262	0.714228	-0.381127	-0.199315	0.659257	-0.381568	-0.138583	0.682452	-0.379322	-0.155238	0.741521	-0.379586	-0.221273	0.351504	-0.376234	-0.243733	0.314585	-0.380042	-0.190008	0.291132	-0.397254	-0.172900	0.327818	-0.396458	-0.380498	0.094492	-0.437052	-0.238533	0.027988	-0.390644	-0.208957	0.037835	-0.465827	-0.181413	0.028229	-0.467520	-0.203696	0.709158	-0.734682	-0.174376	0.654951	-0.731974	-0.115789	0.680745	-0.723815	-0.136412	0.737775	-0.725188	-0.229043	0.318052	-0.736159	-0.250086	0.283377	-0.735452	-0.194745	0.258121	-0.719233	-0.180043	0.299730	-0.722904	-0.379637	0.077172	-0.688929	-0.230977	0.029550	-0.732914	-0.197707	0.037427	-0.663790	-0.171526	0.026198	-0.657917	
377	1.8850	-0.290268	1.355260	-0.557131	-0.216580	1.341789	-0.730159	-0.240240	1.324009	-0.382501	-0.158115	1.301198	-0.553944	-0.146086	0.916257	-0.436042	-0.138737	0.917754	-0.662452	-0.207803	0.965395	-0.410944	-0.200238	0.956614	-0.695678	-0.306013	0.941936	-0.500962	-0.305431	0.939681	-0.606773	-0.305470	0.951044	-0.550244	-0.222748	0.710057	-0.381188	-0.199558	0.655180	-0.381538	-0.138934	0.678621	-0.378845	-0.155848	0.737622	-0.379181	-0.220606	0.347954	-0.376022	-0.243288	0.311157	-0.379939	-0.189711	0.287476	-0.397335	-0.172404	0.324050	-0.396460	-0.381711	0.091629	-0.437657	-0.238878	0.027773	-0.390490	-0.209181	0.037813	-0.465736	-0.181412	0.028216	-0.467438	-0.204259	0.703876	-0.734492	-0.174888	0.649712	-0.731981	-0.116262	0.675556	-0.724338	-0.136918	0.732556	-0.725659	-0.229680	0.313909	-0.735627	-0.250790	0.279306	-0.734773	-0.195411	0.253959	-0.718805	-0.180642	0.295525	-0.722638	-0.381148	0.073358	-0.687446	-0.231622	0.029292	-0.732913	-0.197892	0.037401	-0.663858	-0.171505	0.026199	-0.658041	
378	1.8900	-0.290233	1.350681	-0.557317	-0.217117	1.335927	-0.730895	-0.240340	1.318256	-0.381999	-0.157731	1.295553	-0.553945	-0.146363	0.911658	-0.435409	-0.139108	0.912793	-0.662838	-0.208768	0.959511	-0.410283	-0.201086	0.950583	-0.696092	-0.306701	0.936809	-0.501303	-0.306027	0.934244	-0.606542	-0.305781	0.946550	-0.550290	-0.223288	0.706396	-0.381395	-0.199915	0.651585	-0.381594	-0.139366	0.675171	-0.378307	-0.156479	0.734144	-0.378778	-0.219928	0.344618	-0.375904	-0.242824	0.307940	-0.379961	-0.189383	0.284058	-0.397531	-0.171890	0.320530	-0.396539	-0.382760	0.089000	-0.438487	-0.239221	0.027637	-0.390429	-0.209349	0.037780	-0.465686	-0.181375	0.028202	-0.467355	-0.205134	0.699278	-0.734146	-0.175824	0.645098	-0.731882	-0.117102	0.670864	-0.724819	-0.137669	0.727882	-0.726078	-0.230497	0.309867	-0.734950	-0.251636	0.275305	-0.733917	-0.196193	0.249919	-0.718225	-0.181387	0.291456	-0.722266	-0.382520	0.069659	-0.685751	-0.232272	0.029126	-0.732794	-0.198050	0.037375	-0.663861	-0.171469	0.026207	-0.658160	
379	1.8950	-0.290171	1.346508	-0.557478	-0.217026	1.330348	-0.731764	-0.240500	1.312781	-0.381425	-0.157456	1.290356	-0.553929	-0.146628	0.907458	-0.434738	-0.139449	0.908189	-0.663200	-0.209873	0.953986	-0.409705	-0.201956	0.944832	-0.696539	-0.307255	0.932241	-0.501785	-0.306504	0.929350	-0.606309	-0.305968	0.942626	-0.550429	-0.223867	0.703136	-0.381735	-0.200350	0.648390	-0.381752	-0.139846	0.672040	-0.377709	-0.157125	0.731013	-0.378348	-0.219276	0.341537	-0.375894	-0.242368	0.304975	-0.380132	-0.189049	0.280915	-0.397835	-0.171382	0.317295	-0.396697	-0.383646	0.086621	-0.439542	-0.239566	0.027570	-0.390461	-0.209445	0.037744	-0.465680	-0.181293	0.028186	-0.467267	-0.206311	0.695430	-0.733642	-0.177153	0.641180	-0.731651	-0.118288	0.666753	-0.725246	-0.138669	0.723830	-0.726417	-0.231432	0.306012	-0.734106	-0.252577	0.271483	-0.732884	-0.197055	0.246068	-0.717504	-0.182237	0.287586	-0.721770	-0.383749	0.066110	-0.683876	-0.232912	0.029044	-0.732574	-0.198173	0.037349	-0.663807	-0.171420	0.026214	-0.658278	
380	1.9000	-0.290083	1.342796	-0.557581	-0.216624	1.325179	-0.732625	-0.240697	1.307706	-0.380822	-0.157312	1.285726	-0.553881	-0.146873	0.903705	-0.434064	-0.139746	0.904024	-0.663500	-0.211088	0.948971	-0.409240	-0.202828	0.939506	-0.696997	-0.307665	0.928325	-0.502331	-0.306845	0.925145	-0.606119	-0.306069	0.939272	-0.550633	-0.224458	0.700176	-0.382158	-0.200832	0.645488	-0.381997	-0.140357	0.669160	-0.377066	-0.157770	0.728150	-0.377891	-0.218693	0.338764	-0.376029	-0.241951	0.302306	-0.380454	-0.188726	0.278087	-0.398231	-0.170910	0.314388	-0.396938	-0.384373	0.084490	-0.440791	-0.239912	0.027557	-0.390578	-0.209463	0.037704	-0.465712	-0.181161	0.028165	-0.467173	-0.207727	0.692217	-0.732980	-0.178765	0.637868	-0.731261	-0.119731	0.663199	-0.725614	-0.139888	0.720351	-0.726690	-0.232409	0.302440	-0.733088	-0.253551	0.267930	-0.731687	-0.197942	0.242497	-0.716642	-0.183128	0.284001	-0.721104	-0.384811	0.062761	-0.681901	-0.233534	0.029038	-0.732279	-0.198272	0.037325	-0.663707	-0.171364	0.026220	-0.658394	
381	1.9050	-0.289972	1.339599	-0.557590	-0.216228	1.320548	-0.733339	-0.240938	1.303110	-0.380247	-0.157280	1.281770	-0.553773	-0.147074	0.900436	-0.433421	-0.139991	0.900359	-0.663705	-0.212269	0.944637	-0.408916	-0.203662	0.934775	-0.697436	-0.307938	0.925100	-0.502854	-0.307060	0.921713	-0.605993	-0.306099	0.936465	-0.550848	-0.225053	0.697480	-0.382607	-0.201319	0.642845	-0.382301	-0.140881	0.666526	-0.376451	-0.158425	0.725535	-0.377430	-0.218214	0.336325	-0.376321	-0.241606	0.299971	-0.380928	-0.188441	0.275612	-0.398691	-0.170495	0.311845	-0.397250	-0.384949	0.082617	-0.442191	-0.240256	0.027589	-0.390768	-0.209411	0.037658	-0.465777	-0.180980	0.028140	-0.467075	-0.209303	0.689474	-0.732170	-0.180531	0.635023	-0.730690	-0.121331	0.660117	-0.725904	-0.141276	0.717337	-0.726894	-0.233355	0.299240	-0.731915	-0.254478	0.264759	-0.730363	-0.198780	0.239312	-0.715641	-0.183991	0.280801	-0.720260	-0.385716	0.059723	-0.679973	-0.234124	0.029090	-0.731937	-0.198359	0.037303	-0.663577	-0.171310	0.026223	-0.658508	
382	1.9100	-0.289840	1.336973	-0.557472	-0.216152	1.316582	-0.733765	-0.241199	1.299117	-0.379767	-0.157338	1.278496	-0.553617	-0.147198	0.897672	-0.432852	-0.140171	0.897243	-0.663783	-0.213294	0.941128	-0.408744	-0.204405	0.930797	-0.697817	-0.308072	0.922570	-0.503284	-0.307165	0.919087	-0.605942	-0.306068	0.934209	-0.551044	-0.225631	0.695023	-0.383047	-0.201795	0.640448	-0.382647	-0.141396	0.664150	-0.375876	-0.159066	0.723169	-0.376995	-0.217868	0.334263	-0.376759	-0.241364	0.298007	-0.381541	-0.188224	0.273513	-0.399188	-0.170167	0.309676	-0.397613	-0.385394	0.081013	-0.443663	-0.240592	0.027655	-0.391013	-0.209304	0.037610	-0.465868	-0.180763	0.028108	-0.466975	-0.210957	0.687048	-0.731228	-0.182328	0.632522	-0.729931	-0.122987	0.657436	-0.726097	-0.142775	0.714704	-0.727045	-0.234186	0.296506	-0.730625	-0.255277	0.262038	-0.728968	-0.199494	0.236591	-0.714528	-0.184743	0.278080	-0.719248	-0.386458	0.057094	-0.678229	-0.234656	0.029181	-0.731578	-0.198441	0.037281	-0.663429	-0.171265	0.026220	-0.658611	
383	1.9150	-0.289690	1.334973	-0.557194	-0.216715	1.313408	-0.733761	-0.241472	1.295828	-0.379386	-0.157482	1.275868	-0.553430	-0.147213	0.895419	-0.432396	-0.140281	0.894697	-0.663728	-0.214083	0.938494	-0.408657	-0.204962	0.927719	-0.698104	-0.308075	0.920724	-0.503564	-0.307172	0.917237	-0.605942	-0.305991	0.932459	-0.551181	-0.226162	0.692866	-0.383437	-0.202242	0.638350	-0.382999	-0.141879	0.662078	-0.375408	-0.159663	0.721102	-0.376611	-0.217683	0.332601	-0.377327	-0.241249	0.296431	-0.382275	-0.188100	0.271810	-0.399697	-0.169954	0.307918	-0.398010	-0.385730	0.079686	-0.445135	-0.240910	0.027742	-0.391301	-0.209157	0.037563	-0.465978	-0.180525	0.028070	-0.466879	-0.212607	0.684877	-0.730183	-0.184055	0.630305	-0.728986	-0.124608	0.655118	-0.726180	-0.144317	0.712408	-0.727148	-0.234815	0.294304	-0.729281	-0.255875	0.259841	-0.727572	-0.200021	0.234408	-0.713335	-0.185309	0.275900	-0.718089	-0.387036	0.054948	-0.676767	-0.235103	0.029291	-0.731232	-0.198516	0.037257	-0.663274	-0.171232	0.026210	-0.658698	
384	1.9200	-0.289647	1.333451	-0.556805	-0.216962	1.310967	-0.733734	-0.241759	1.293273	-0.379125	-0.157657	1.273881	-0.553231	-0.147094	0.893681	-0.432089	-0.140315	0.892736	-0.663546	-0.214469	0.936797	-0.408605	-0.205255	0.925639	-0.698271	-0.307951	0.919508	-0.503657	-0.307092	0.916100	-0.605972	-0.305861	0.931219	-0.551224	-0.226610	0.691112	-0.383752	-0.202644	0.636622	-0.383332	-0.142315	0.660362	-0.375072	-0.160167	0.719394	-0.376314	-0.217674	0.331356	-0.378024	-0.241283	0.295229	-0.383106	-0.188082	0.270517	-0.400205	-0.169876	0.306579	-0.398431	-0.385968	0.078629	-0.446529	-0.241198	0.027835	-0.391605	-0.208991	0.037520	-0.466099	-0.180285	0.028031	-0.466793	-0.214175	0.682976	-0.729068	-0.185643	0.628388	-0.727874	-0.126132	0.653158	-0.726113	-0.145820	0.710458	-0.727199	-0.235172	0.292680	-0.727952	-0.256208	0.258207	-0.726245	-0.200320	0.232793	-0.712091	-0.185629	0.274298	-0.716820	-0.387451	0.053360	-0.675682	-0.235446	0.029397	-0.730922	-0.198581	0.037230	-0.663122	-0.171210	0.026195	-0.658758	
